<?xml version="1.0" encoding="UTF-8"?>
<svg id="Layer_2" data-name="Layer 2" xmlns="http://www.w3.org/2000/svg" viewBox="0 0 234.33 272.06">
  <defs>
    <style>
      .cls-1 {
        fill: #91dbc5;
        stroke-width: 0px;
      }
    </style>
  </defs>
  <g id="Layer_1-2" data-name="Layer 1">
    <g>
      <path class="cls-1" d="m170.35,92.16c0,5.59-4.41,10-9.9,10s-10-4.41-10-10,4.51-9.9,10-9.9,9.9,4.41,9.9,9.9Z"/>
      <path class="cls-1" d="m117.21,94.61c-22.84,0-41.46,18.53-41.46,41.47s18.63,41.47,41.46,41.47,41.47-18.63,41.47-41.47-18.63-41.47-41.47-41.47Zm0,69.02c-15.19,0-27.64-12.35-27.64-27.55s12.45-27.65,27.64-27.65,27.55,12.45,27.55,27.65-12.35,27.55-27.55,27.55Z"/>
      <path class="cls-1" d="m3.99,168.7c3.89,17.59,10.65,35.22,20.47,52.13,10.71,18.44,25.08,35.66,44.44,44.61,31.59,14.61,70.57,3.63,96.87-19.16,26.3-22.79,42.06-55.32,54.12-87.97,14.21-38.45,23.47-84.28.53-118.26C204.76,16.84,176.71,4.41,148.89,1.19,40.11-11.4-16,78.23,3.99,168.7Zm180.28,2.18c0,17.84-14.41,32.25-32.16,32.25h-69.8c-17.74,0-32.16-14.41-32.16-32.25v-69.7c0-17.74,14.41-32.25,32.16-32.25h69.8c17.74,0,32.16,14.51,32.16,32.25v69.7Z"/>
    </g>
  </g>
</svg>