<?xml version="1.0" encoding="UTF-8"?>
<svg id="Layer_2" data-name="Layer 2" xmlns="http://www.w3.org/2000/svg" viewBox="0 0 1030.33 1201.02">
  <defs>
    <style>
      .cls-1 {
        fill: #91dbc5;
      }

      .cls-1, .cls-2 {
        stroke-width: 0px;
      }

      .cls-2 {
        fill: #0f5257;
      }
    </style>
  </defs>
  <g id="Layer_1-2" data-name="Layer 1">
    <g>
      <path class="cls-1" d="m997.43,116.72c-120.23,4.56-169.56-63.62-229.92-116.72-62.36,69.68-133.76,136.24-205.45,196.22-104.1-28.63-192.47-109.66-289.24-158.85-46.7-33.27-41.38-47.84-81.23,2.98C128.42,107,63.97,174.49,0,239.77c52.65,88.05,110.31,147.68,168.44,235.06,4.62,2.51-109.89,146.41-143.9,172.03.11,50.11-18.92,115.32,8.97,159.16,99.49,57.7,204.78,112.41,311.16,158.52,20.94,14.07-.28,44.78.12,64.37,29.48,33.19,91.45,43.83,130.34,71.38,62.65,35.94,126.9,73.45,192.47,100.71,8.92-7.88,9.57-22.99,17.13-32.7,49.72-82.64,99.13-171.64,143.84-256.03,40.37-27.67,173.03-132.9,196.28-144.87-31.49-55.14-64.45-67.14-85.43-102.05-21.84-28.88-40.34-48.65-55.7-90.49,1.97-81.56,3.62-162.92,1.98-244.33,29.99-41.32,74.24-74.88,104.74-118.45,16-21.19,77-98.04,7-95.38Z"/>
      <path class="cls-2" d="m872.97,499.25c-.66,0-5,10.06-8.01,17.25-1.45,3.47-2.6,6.29-2.82,6.94-2.87,8.53-4.21,17.39-7.19,25.86-4.7,13.31-8.61,27.8-14.71,40.49-6.45,13.45-12.03,26.98-17.14,40.98-2.87,7.85-5.74,15.72-7.52,23.87-.96,4.46-1.56,9.27-.57,13.78,1.07,4.7,4.29,8.8,6.01,13.31,2.21,5.77,4.18,11.62,6.01,17.5,4.16,13.26,7.38,26.76,12.19,39.8,3.53,9.51,8.42,18.42,12.41,27.72,4.07,9.46,6.01,19.76,7.87,29.85.14.68.19,1.56-.36,1.97-.3.22-.66.25-1.01.3-3.39.33-6.67.9-9.98,1.48-2.32.38-8.01-1.15-9.73-.27-2.1.79-4.1,1.72-6.45,1.89-4.54.36-8.97-1.42-13.67-.57-1.72.33-5.63,3.31-7,3.03-1.31-.3-1.04-1.5-1.83-1.78-1.91-.71-.88-1.75-4.46-.93-2.19.52-4.51.74-5.9,2.52,1.04.79,2.92-.16,3.28.96-3.69.98-6.75.98-10.03-1.01-.55-.33-1.67-2.35-2.54-2-.81.32-.49,3.45-3.24,4.19-3.6.97-9.18-.3-12.92-.42-9.02-.3,9.3-.59.29-.89-6.93-.23-13.86-.46-20.8-.68-2.81-.09-6.36.39-9.08-.23-2.15-.49-3.82-2.34-6-2.76-4.67-.85-9.1.93-13.67.57-2.32-.16-4.32-1.09-6.45-1.89-1.72-.87-7.41.66-9.73.27-3.31-.57-6.56-1.15-9.98-1.48-.33-.05-.71-.08-.99-.3-.57-.41-.49-1.28-.38-1.97,1.86-10.09,3.8-20.39,7.87-29.85,3.99-9.29,8.91-18.21,12.41-27.72,4.81-13.04,8.06-26.54,12.19-39.8,1.83-5.88,3.8-11.73,6.01-17.5,1.72-4.51,4.95-8.61,6.01-13.31,1.01-4.51.41-9.32-.57-13.78-1.78-8.15-4.65-16.02-7.52-23.87-5.11-14-10.69-27.53-17.14-40.98-6.1-12.68-10.01-27.17-14.71-40.49-2.98-8.47-4.32-17.33-7.19-25.86-.22-.68-1.37-3.5-2.82-7-3.01-7.19-7.35-17.19-7.98-17.19,2.6-1.53,5.19-3.01,7.79-4.51,6.75-3.94,13.39-7.96,19.49-12.93,7.57-6.21,14.9-16.7,23.81-20.34.68-.27,1.39-.57,2.08-.87,9.38-3.94,18.34-8.77,26.71-14.52-.16,1.61-.3,4.78-.38,8.8-.36,14.84-.25,41.63.33,47.65,11.18.05-4.89-.5,6.15.08,2.73.14,5.52-.02,8.26-.03,5.15-.02,10.29-.02,15.44-.05.55-6.01.66-32.78.33-47.65-.11-4.02-.25-7.16-.41-8.8,8.39,5.74,17.36,10.58,26.71,14.52.68.3,1.39.6,2.08.87,8.91,3.64,16.26,14.13,23.81,20.34,6.1,4.98,12.74,8.99,19.52,12.93,2.6,1.5,5.2,2.98,7.79,4.51Z"/>
      <path class="cls-2" d="m723.63,354.73c-.48-6.2-2.15-11.96-2.66-18.04-.17-2-1.61-20.96-.26-21.33-8.51,2.32-17.05,1.51-25.84,1.46-.31-3.62-.61-7.25-.92-10.87,7.12.17,14.56.34,21.51-1.39-.2-2.19-1.07-4.25-1.88-6.28-3.26-4.89-3.83-12-5.88-17.43-1.99-5.28-3.25-9.89-4.17-15.58-8.4.34-17-1.77-25.24.51-.68-6.35-1.03-12.73-1.04-19.11-28.68-.36-57.31,1.47-85.97,1.96-9.64.17-19.27-.6-28.94-.24-.55.02-1.16.07-1.55.46-.46.47-.41,1.22-.32,1.87.82,6.34,2.48,13.66,1.76,20.04-.58,5.12-3.61,5.41-8.72,5.46-3.21.03-6.33.46-9.52.72-2.56.21-6.27-.56-8.67.25-7.7,2.6-2.26,26.09-1.87,31.71.15,2.11.29,4.23.44,6.34,9.35-.82,18.7-1.63,28.05-2.45-.3,6.77,2.9,11.95-5.24,11.7-6.88-.21-13.06-3.59-19.69-.46-5.32,2.52-2.64,9.21-2.29,14.31.44,6.48.82,12.97,1.14,19.45.65,12.98,1.09,25.96,1.38,38.95.59,25.99.61,372.5.64,398.5,33.22-3.17,66.74,7.67,99.98,10.65,31.3,2.81,62.37-2.59,93.77-1.38,4.34-21.33.3-363.84-2.47-385.43-1.83-14.23-3.09-28.53-4.13-42.84-.12-1.61-.65-12.05-1.38-21.52Z"/>
      <path class="cls-2" d="m528.9,428.56c-.19-.16-.38-.31-.57-.47-9.97-8.14-19.94-16.28-29.91-24.42-4.24-3.46-8.81-5.65-5.05-10.92,2.56-3.59,7.99-7.67,11.24-10.98,4.5-4.58,10.28-5.83,13.88-11.37,2.06-3.17,3.31-3.21,6.65-4.43,1.62-.59,3.82-1.27,5.21-2.32.96-.72,3.35-5.12,4.18-5.2-15.76,1.5-31.23-.23-46.96-.37-14.93-.13-29.97.82-44.89,1.37-8.46.32-16.92.65-25.39.93-5.36.17-11.25.96-16.6.01-.41-.07-.8-.15-1.17-.25-6.91.32-13.83.27-20.73-.17-3.16,2.93-9.95,1.33-14,1.46-13.58.43-26.8,1.24-40.07,3.53-14.36,2.48-30.55.3-45.19,1.28,14.17,11.06,27.25,23.52,39,37.13,3.36,3.89,15.05,12.51,12.97,18.12-2.57,6.94-22.97,11.46-29.08,14.59-.73.37-1.48.79-1.91,1.49-.49.8-.44,1.8-.39,2.73,1.05,17.05,3.53,34.47,3.77,51.42.1,6.41-.6,12.51.22,18.91.87,6.73.8,12.99-.15,19.71-2.06,14.47-.94,28.97-.86,43.55.09,15.07.92,29.78,2.13,44.78.58,7.17-1.17,13.97-.97,21.02.17,6.55.53,12.91.52,19.5-.03,13.81,1.69,27.9.05,41.64-1.7,14.2-2.79,28.22-1.52,42.5.43,4.87.6,9.78.81,14.69,2.64,10.16,4.67,20.48,6.08,30.89.95,7.03-1.29,19.59,6.54,21.31,9.84,2.16,22.32.32,32.42.47,10.79.16,21.59.31,32.38.47,43.18.63,86.36,1.26,129.54,1.89,7.77.11,15.54.23,23.32.34,1.55-9.2.04-16.67-.05-25.61-.11-10.98.78-22.05,1.55-33,1.53-21.59,3.74-43.13,4.48-64.77.68-20.1.1-40.22-.49-60.32-1.85-63.33-3.7-126.66-5.55-189.98-.06-1.94-.12-3.93-.86-5.72-.92-2.21-2.75-3.88-4.61-5.41Z"/>
      <path class="cls-2" d="m218.79,616.6c-.24-4.55.3-9.12-.15-13.66-.2-2.05-1.07-4.06-1.23-6.06-.14-1.74.34-3.56.44-5.29.25-4.46.23-9.62-.63-14-.25-1.29-.86-2.15-.84-3.53.04-1.95,1.01-3.99,1.1-6.01.21-4.39,1.38-16.17-2.6-18.35-4.67-2.56-10.41.38-14.95-2.81-4.46-3.13-3.4-8.2-3.52-13.15-.04-1.55-.09-3.15-.71-4.56-.6-1.37-1.69-2.45-2.78-3.47-6.29-5.95-11.69-11.41-17.13-18.01-2.6-3.16-2.87-3.67-2.96-7.91-.05-2.29.75-6.7-1.29-8.42-.32-.27-4.76.87-5.21,1.08-1.71.78.85,1.15-1.22,1.09-.47-.02-.85-.77-1.23-.86-.51-.12-.99-.29-1.51-.36-2.62,3.8-1.34,8.9-1.11,13.23.09,1.57.16,3.2-.43,4.65-.47,1.17-1.34,2.12-2.19,3.05-3.91,4.28-7.57,9.15-12.17,12.52-3.36,2.46-8.02,3.54-8.02,8.51,1.03,6.57,2.35,14.95.75,21.48-.05.18-.11.36-.24.48-.13.12-.32.16-.49.19-2.65.51-8.21.52-10.27,2.21-2.18,1.77-1.39,5.34-.97,7.65.55,2.99-1.45,4.57-1.31,7.4.23,4.33,1.44,8.83,1.83,13.19.38,4.3.55,8.61.72,12.91.29,7.24-.36,15.98,1.75,22.98.82,2.74,2.13,2.95,4.84,3.3,2.98.38,7.13,1.2,9.77,2.78,3.15,1.88,1.58,6.02,1.52,9.08-.11,5.24.95,10.51.82,15.7-.17,6.57-1.56,13.19-1.82,19.8-.5,12.9.32,25.85,2.46,38.58.9,5.38,2.04,10.73,2.82,16.13,2.5,17.4,1.22,35.09-.06,52.62-.7,9.63-1.41,19.26-2.11,28.89,20.84-.27,41.67-1.58,62.38-3.9-2.25-14.82-2.62-29.93-1.11-44.84.68-6.71,2.26-12.43,1.72-19.19-.55-6.84-1.72-13.62-2.17-20.47-1.16-17.71-.15-35.67-.52-53.42-.28-13.16-.88-26.23-.75-39.37.06-5.82,4.35-4.79,8.65-6.06,2.91-.86,2.26-3.27,2.12-5.78Zm-39.4-16.37c-1.33,1.54-3.17,2.09-5.23,2.21-1.39.08-4.06-1.59-5.31-2.21-1.89-.93-3.63-2.07-5.08-3.61-2.97-3.17-3.91-8.57-3.98-12.82-.06-3.95,1.05-8.04,3.66-11.01,2.7-3.07,7.22-5.07,10.86-2.8,3.84,2.39,6.94,5.28,8.57,9.61.84,2.21,1.23,4.57,1.62,6.91.43,2.6.97,5.58.07,8.14-.88,2.51-3.53,3.64-5.2,5.57Z"/>
      <path class="cls-2" d="m196.5,776.93c-5.18-3.45-10.63-6.59-16.07-10.16-3.26-2.14-8.78-5.36-7.89-10.04.87-4.56,7.32-6.37,10.56-8.82,5.52-4.18,10.9-8.57,15.75-13.53,6.4-6.55,11.6-14.09,17.7-20.88,6.48-7.22,13.28-14.17,20.48-20.69,6.9-6.25,15.98-10.78,22.01-17.82,2.18-2.55,6.58-3.67,9.08-6.06,2.35-2.24,3.56-6.05,7.44-6.16,2.78-.08,4.98,2.23,6.77,4.36,12.4,14.67,26.17,28.12,38.39,42.95,12.65,15.36,24.78,31.35,36.53,47.42,2.72,3.74-33.03,30.96-35.74,34.23-4.99,6.02-9.34,16.96-15.9,21.2-5.26,3.4-11.7,1.65-17.5,1.23-10.5-.76-20.95-.51-31.47-.37-5.91.08-14.03,1.44-19.64-.66-3.32-.91-6.04-3.25-8.54-5.63-10.67-10.19-19.57-22.29-31.98-30.55Z"/>
    </g>
  </g>
</svg>