<?xml version="1.0" encoding="UTF-8"?>
<svg id="Layer_2" data-name="Layer 2" xmlns="http://www.w3.org/2000/svg" viewBox="0 0 286.66 342.5">
  <defs>
    <style>
      .cls-1 {
        fill: #91dbc5;
        stroke-width: 0px;
      }
    </style>
  </defs>
  <g id="Layer_1-2" data-name="Layer 1">
    <path class="cls-1" d="m111.89.81c12.87-.93,26.09-1.82,38.42,1.95,8.37,2.56,15.95,7.17,23.17,12.12,39.33,26.97,70.48,65.72,88.36,109.94,7.86,19.42,13.18,39.77,17.77,60.21,4.63,20.61,8.54,41.73,6.47,62.75-2.41,24.34-15.55,41.74-28.1,61.49-11.34,17.84-30.52,29.88-51.41,32.53-41.37,5.26-83.53-20.18-113.12-46.65C40,247.35-11.78,166.98,2.36,91.88c3.5-18.6,11.75-35.97,24.38-50.12,8.55-9.57,17-21.9,28.08-28.28,4.14-2.38,8.52-4.27,13.04-5.79,14.05-4.71,29.56-5.84,44.03-6.88Zm78.86,109.1h-19.61c-21.08,0-30.49,9.31-30.49,27.06v18.92h-14.8v24.02h14.8v70.58h28.23v-70.88h19.8l2.06-23.72h-21.86v-13.53c0-5.59,1.18-7.84,6.57-7.84h15.29v-24.61Z"/>
  </g>
</svg>