<?xml version="1.0" encoding="UTF-8"?>
<svg id="Layer_2" data-name="Layer 2" xmlns="http://www.w3.org/2000/svg" viewBox="0 0 246.87 192.35">
  <defs>
    <style>
      .cls-1 {
        fill: #91dbc5;
        stroke-width: 0px;
      }
    </style>
  </defs>
  <g id="Layer_1-2" data-name="Layer 1">
    <g>
      <path class="cls-1" d="m109.47,156.27c-.7-.46-5.02-1.73-5.68-4.05-1.31-4.59-2.57-11.01-.38-14.45,6.87-10.77,17.84-16.74,30.4-18.66,8.56-1.31,12.94,5.82,9.94,14.95-3.73,11.34-19,22.11-34.29,22.22Z"/>
      <path class="cls-1" d="m174.91,66.06c-4.47-3.5-8.21-5.27-10-8.22-1.24-2.05-.73-6.25.6-8.58,6.01-10.6,25.72-19.93,37.4-17.55,3.35.68,7.89,3.16,8.82,5.87.95,2.75-.83,8.5-3.24,10-10.76,6.7-22.18,12.34-33.58,18.48Z"/>
      <path class="cls-1" d="m7.07,158.25c-1.01-.63-5.36-1.85-6.21-4.28-1.21-3.46-1.3-8.91.71-11.58,6.49-8.68,15.72-13.28,26.86-12.21,6.78.65,9.46,4.76,7.33,11.51-2.76,8.78-14.65,16.29-28.68,16.56Z"/>
      <path class="cls-1" d="m88.44,54.75c-1.27-.75-5.37-1.77-6.03-3.87-.98-3.15-.81-8.06,1.09-10.47,7.14-9.06,17.06-13.54,28.67-13.11,7.85.29,10.15,4.74,6.4,11.71-6.03,11.2-16.59,14.39-30.13,15.75Z"/>
      <path class="cls-1" d="m198.92,25.97c-1.17-.79-4.58-1.87-5.26-3.88-.71-2.09.48-6.63,2.13-7.41,11.16-5.33,22.58-10.13,34.13-14.57,1.52-.59,5.68,1.48,6.01,2.91.54,2.34-.31,5.84-1.91,7.69-8.73,10.12-20.67,13.6-35.09,15.27Z"/>
      <path class="cls-1" d="m91.24,113.83c-9.92.21-13.13-4.77-9.51-11.57,4.44-8.33,24.15-17.16,33.02-14.02,1.75.62,3.8,6.35,2.84,7.74-6.79,9.88-16.05,16.47-26.35,17.85Z"/>
      <path class="cls-1" d="m140.09,42.29c-7.78-2.06-9.31-5.28-6.75-10.8,3.75-8.11,27.4-19.15,36.31-16.73,6.66,1.81,6.55,6.76,1.88,9.78-10.08,6.53-20.91,11.9-31.43,17.75Z"/>
      <path class="cls-1" d="m62.03,155.52c-3.22-1.63-8.39-2.62-9.19-5.05-1.09-3.28-.14-9.41,2.26-11.24,6.17-4.69,13.27-9.31,20.67-10.92,7.99-1.74,11.83,5.35,7.56,12.44-4.65,7.71-10.51,14.1-21.29,14.77Z"/>
      <path class="cls-1" d="m200.13,102.57c-1.99,3.25-2.77,6.2-4.64,7.31-8.42,4.99-17,9.79-25.88,13.87-1.94.89-7.01-.78-7.75-2.51-1.15-2.69-.96-8.56.62-9.4,10.03-5.3,20.51-9.8,31.09-13.95,1.25-.49,3.95,2.74,6.57,4.68Z"/>
      <path class="cls-1" d="m162.62,78.05c.8.43,4.54,1.21,5.14,3.03.85,2.59.47,6.95-1.26,8.8-7.81,8.34-17.81,13.03-29.28,13.12-7.47.06-5.85-5.39-4.02-9.69,3.73-8.78,15.3-15.04,29.42-15.27Z"/>
      <path class="cls-1" d="m38.04,117.7c-.95-.71-4.91-2.16-5.27-4.23-.75-4.36-1.26-11.61,1.06-13.1,6.44-4.14,14.26-7.53,21.79-8.16,6.31-.53,8.05,5.98,5.22,11.43-4.24,8.18-10.95,13.46-22.8,14.07Z"/>
      <path class="cls-1" d="m89.54,165.33c1.08,1.35,4.65,3.84,5.13,6.83,1.3,7.97-10.97,19.88-20.14,20.18-6.71.22-10.15-4.01-10.9-10.05-.91-7.34,12.14-16.69,25.9-16.96Z"/>
      <path class="cls-1" d="m144.63,168.48c-.32-.16-4.83-.99-5.74-3.26-.99-2.48.31-7.67,2.43-9.26,6.52-4.88,13.73-8.95,21.07-12.51,1.89-.92,6.57.36,7.59,2.06,1.34,2.24,1.52,6.65.14,8.8-5.16,7.97-11.51,14.86-25.48,14.18Z"/>
      <path class="cls-1" d="m27.69,188.11c-1.25-1.3-6.38-4.16-6.84-7.63-1.02-7.69,10.57-14.79,21.6-15.05,5.66-.14,7.5,2.52,7.63,7.47.24,9.19-7.04,15.1-22.4,15.21Z"/>
      <path class="cls-1" d="m120.74,78.49c-3.4-2.33-7.08-3.56-7.39-5.36-.45-2.68.72-7.61,2.53-8.36,8.18-3.37,16.79-5.76,25.36-8.09,1.18-.32,4.33,1.76,4.27,2.55-.23,2.99-.5,7.46-2.39,8.58-7.04,4.13-14.74,7.15-22.38,10.68Z"/>
      <path class="cls-1" d="m218.7,108.09c-7.9-1.46-12.02-8.55-7.24-13.78,4.85-5.3,11.79-9.61,18.63-11.92,6.51-2.2,11,4.25,6.74,9.71-4.88,6.24-11.99,10.74-18.13,15.99Z"/>
      <path class="cls-1" d="m216.06,70.71c-2.07,2.83-3.11,5.53-5.07,6.69-6.28,3.72-12.76,7.22-19.49,10.03-1.89.79-5.98-.36-7.12-1.98-1.25-1.78-1.14-5.6-.05-7.71,3.66-7.1,19.74-13.69,26.96-11.3,1.68.56,2.9,2.54,4.77,4.27Z"/>
      <path class="cls-1" d="m126.37,172.36c-1.14,8.81-12.47,19.61-18.82,19.41-4.73-.15-9.27-8.5-5.85-12.45,4.04-4.67,9.49-8.6,15.1-11.21,2.08-.97,6.32,2.7,9.58,4.25Z"/>
      <path class="cls-1" d="m89.69,67.01c.94,1.36,4.85,5.68,4.28,6.38-4.22,5.2-8.85,10.46-14.48,13.84-1.36.82-8.87-4.72-10.06-8.45-1.71-5.33,8.46-11.6,20.26-11.76Z"/>
      <path class="cls-1" d="m242.45,38.78c.9,1.14,3.99,3.34,4.39,5.94.82,5.41-11.72,14.27-19.82,13.5-2.61-.25-6.56-4.11-6.94-6.74-.87-6.13,10.52-12.98,22.37-12.71Z"/>
      <path class="cls-1" d="m193.56,142.86c-3.21-2.32-5.96-3.29-6.27-4.76-.53-2.54-.53-6.86.98-7.88,6.07-4.11,12.73-7.4,19.44-10.4.49-.22,4.78,6,4.45,6.33-5.81,5.74-12.07,11.02-18.6,16.72Z"/>
      <path class="cls-1" d="m192.97,152.31c4.24,4.65,6.46,7.1,8.69,9.55-5.88,4.46-11.61,9.17-17.87,13.02-.67.41-4.42-4.18-6.75-6.46,4.82-4.88,9.64-9.76,15.92-16.12Z"/>
    </g>
  </g>
</svg>